<?xml version="1.0" encoding="UTF-8" standalone="no"?>
<svg
   height="24px"
   viewBox="0 -960 960 960"
   width="24px"
   fill="#f38ba8"
   version="1.1"
   id="svg1"
   sodipodi:docname="music_note_2_24dp_1E1E2E_FILL0_wght400_GRAD0_opsz24.svg"
   inkscape:version="1.4.3 (0d15f75, 2025-12-25)"
   xmlns:inkscape="http://www.inkscape.org/namespaces/inkscape"
   xmlns:sodipodi="http://sodipodi.sourceforge.net/DTD/sodipodi-0.dtd"
   xmlns="http://www.w3.org/2000/svg"
   xmlns:svg="http://www.w3.org/2000/svg">
  <defs
     id="defs1" />
  <sodipodi:namedview
     id="namedview1"
     pagecolor="#ffffff"
     bordercolor="#000000"
     borderopacity="0.25"
     inkscape:showpageshadow="2"
     inkscape:pageopacity="0.0"
     inkscape:pagecheckerboard="0"
     inkscape:deskcolor="#d1d1d1"
     inkscape:zoom="25.190679"
     inkscape:cx="16.772077"
     inkscape:cy="12.921446"
     inkscape:window-width="960"
     inkscape:window-height="1057"
     inkscape:window-x="2872"
     inkscape:window-y="-8"
     inkscape:window-maximized="0"
     inkscape:current-layer="svg1" />
  <circle
     style="fill:#a6e3a1;stroke-width:53.8583;fill-opacity:1"
     id="path2"
     cx="480"
     cy="-480"
     r="480" />
  <path
     d="M127-167q-47-47-47-113t47-113q47-47 113-47 23 0 42.5 5.5T320-418v-342l480-80v480q0 66-47 113t-113 47q-66 0-113-47t-47-113q0-66 47-113t113-47q23 0 42.5 5.5T720-498v-165l-320 63v320q0 66-47 113t-113 47q-66 0-113-47Z"
     id="path1"
     style="fill:#313244;fill-opacity:1" />
</svg>
