<?xml version="1.0" encoding="UTF-8" standalone="no"?>
<!-- Generator: Adobe Illustrator 22.0.1, SVG Export Plug-In . SVG Version: 6.00 Build 0)  -->

<svg
   version="1.1"
   id="Layer_1"
   x="0px"
   y="0px"
   width="16px"
   height="16px"
   viewBox="0 0 16 16"
   style="enable-background:new 0 0 16 16;"
   xml:space="preserve"
   sodipodi:docname="ControlAlignFullRect_Tips.svg"
   inkscape:version="1.4.3 (0d15f75, 2025-12-25)"
   xmlns:inkscape="http://www.inkscape.org/namespaces/inkscape"
   xmlns:sodipodi="http://sodipodi.sourceforge.net/DTD/sodipodi-0.dtd"
   xmlns="http://www.w3.org/2000/svg"
   xmlns:svg="http://www.w3.org/2000/svg"><defs
   id="defs5" /><sodipodi:namedview
   id="namedview5"
   pagecolor="#ffffff"
   bordercolor="#000000"
   borderopacity="0.25"
   inkscape:showpageshadow="2"
   inkscape:pageopacity="0.0"
   inkscape:pagecheckerboard="0"
   inkscape:deskcolor="#d1d1d1"
   inkscape:zoom="53.4375"
   inkscape:cx="8.6549708"
   inkscape:cy="6.7274854"
   inkscape:window-width="1920"
   inkscape:window-height="1057"
   inkscape:window-x="-8"
   inkscape:window-y="-8"
   inkscape:window-maximized="1"
   inkscape:current-layer="Layer_1" />
<style
   type="text/css"
   id="style1">
	.st0{fill:#D6D6D6;}
	.st1{opacity:0.65;enable-background:new    ;}
	.st2{fill:#91FF91;}
</style>
<g
   id="Layer_1_1_">
	<path
   class="st0"
   d="M0,0h16v16H0V0z"
   id="path1"
   style="fill:#474747;fill-opacity:1" />
	<g
   class="st1"
   id="g5">
		<path
   class="st2"
   d="M1.9,14V3.7H0.2V2.3h4.1v1.4H2.5V14H1.9z"
   id="path2" />
		<path
   class="st2"
   d="M5.1,14V2.3h0.7V14H5.1z"
   id="path3" />
		<path
   class="st2"
   d="M7,14V2.3h1.9c0.3,0,0.6,0,0.8,0.1c0.3,0.1,0.5,0.3,0.6,0.5s0.3,0.6,0.4,1.1c0.1,0.5,0.2,1,0.2,1.6    c0,1-0.1,1.8-0.4,2.5c-0.3,0.7-0.8,1-1.5,1H7.6V14H7z M7.6,7.9H9c0.4,0,0.8-0.2,0.9-0.6c0.2-0.4,0.3-0.9,0.3-1.6    c0-0.5-0.1-0.9-0.2-1.3S9.8,3.9,9.6,3.8C9.5,3.7,9.3,3.7,9,3.7H7.6V7.9z"
   id="path4" />
		<path
   class="st2"
   d="M11.5,10.3l0.6-0.1c0,0.6,0.1,1.1,0.2,1.4s0.3,0.7,0.5,0.9s0.5,0.3,0.8,0.3s0.5-0.1,0.7-0.3s0.3-0.4,0.4-0.7    c0.1-0.3,0.1-0.6,0.1-1s0-0.7-0.1-1s-0.2-0.5-0.5-0.7c-0.1-0.1-0.4-0.3-0.9-0.6s-0.8-0.5-1-0.7c-0.2-0.3-0.4-0.7-0.5-1.1    s-0.2-0.9-0.2-1.5s0.1-1.1,0.2-1.7c0.1-0.5,0.4-0.9,0.6-1.2C12.7,2,13,1.9,13.3,1.9c0.4,0,0.7,0.1,1,0.4S14.8,3,15,3.5    s0.2,1.2,0.3,1.8l-0.7,0.1c0-0.7-0.2-1.3-0.4-1.7S14,3.5,13.6,3.5S12.9,3.7,12.7,4s-0.3,0.8-0.3,1.2c0,0.4,0.1,0.8,0.2,1    c0.1,0.3,0.5,0.5,1,0.8c0.6,0.3,0.9,0.5,1.1,0.7C15,8.2,15.3,8.6,15.4,9c0.1,0.5,0.2,1,0.2,1.7c0,0.6-0.1,1.2-0.2,1.8    c-0.2,0.6-0.4,1-0.7,1.3s-0.6,0.5-1,0.5c-0.5,0-0.9-0.2-1.2-0.5S12,13,11.8,12.4S11.5,11,11.5,10.3z"
   id="path5" />
	</g>
</g>
</svg>
