<?xml version="1.0" encoding="utf-8"?>
<!-- Generator: Adobe Illustrator 22.0.1, SVG Export Plug-In . SVG Version: 6.00 Build 0)  -->
<svg version="1.1" id="Layer_1" xmlns="http://www.w3.org/2000/svg" xmlns:xlink="http://www.w3.org/1999/xlink" x="0px" y="0px"
	 viewBox="0 0 16 16" style="enable-background:new 0 0 16 16;" xml:space="preserve">
<style type="text/css">
	.st0{fill:#8EEF97;}
</style>
<g>
	<path class="st0" d="M14.1,1H1.9C1.4,1,1,1.4,1,1.9v2.3C1,4.6,1.4,5,1.9,5h12.3C14.6,5,15,4.6,15,4.1V1.9C15,1.4,14.6,1,14.1,1z
		 M3,3.9V2.1h6.1v1.8H3z M11.5,3.8L10,2.1h3L11.5,3.8z"/>
	<path class="st0" d="M14,6H2C1.4,6,1,6.4,1,7v7c0,0.6,0.4,1,1,1h12c0.6,0,1-0.4,1-1V7C15,6.4,14.6,6,14,6z M13,13H3v-2h10V13z
		 M13,9.7H3v-2h10V9.7z"/>
</g>
</svg>
