<?xml version="1.0" encoding="utf-8"?>
<!-- Generator: Adobe Illustrator 22.0.1, SVG Export Plug-In . SVG Version: 6.00 Build 0)  -->
<svg version="1.1" id="Layer_1" xmlns="http://www.w3.org/2000/svg" xmlns:xlink="http://www.w3.org/1999/xlink" x="0px" y="0px"
	 viewBox="0 0 16 16" style="enable-background:new 0 0 16 16;" xml:space="preserve">
<style type="text/css">
	.st0{opacity:0.65;fill:#919191;enable-background:new    ;}
	.st1{opacity:0.65;enable-background:new    ;}
	.st2{fill:#FFFFFF;}
</style>
<g id="Layer_1_1_">
	<path class="st0" d="M0,0h16v16H0V0z"/>
	<g class="st1">
		<path class="st2" d="M1.9,14V3.7H0.2V2.3h4.1v1.4H2.5V14H1.9z"/>
		<path class="st2" d="M5.1,14V2.3h0.7V14H5.1z"/>
		<path class="st2" d="M7,14V2.3h1.9c0.3,0,0.6,0,0.8,0.1c0.3,0.1,0.5,0.3,0.6,0.5s0.3,0.6,0.4,1.1c0.1,0.5,0.2,1,0.2,1.6
			c0,1-0.1,1.8-0.4,2.5c-0.3,0.7-0.8,1-1.5,1H7.6V14H7z M7.6,7.9H9c0.4,0,0.8-0.2,0.9-0.6c0.2-0.4,0.3-0.9,0.3-1.6
			c0-0.5-0.1-0.9-0.2-1.3S9.8,3.9,9.6,3.8C9.5,3.7,9.3,3.7,9,3.7H7.6V7.9z"/>
		<path class="st2" d="M11.5,10.3l0.6-0.1c0,0.6,0.1,1.1,0.2,1.4s0.3,0.7,0.5,0.9s0.5,0.3,0.8,0.3c0.3,0,0.5-0.1,0.7-0.3
			s0.3-0.4,0.4-0.7c0.1-0.3,0.1-0.6,0.1-1c0-0.4,0-0.7-0.1-1c-0.1-0.3-0.2-0.5-0.5-0.7c-0.1-0.1-0.4-0.3-0.9-0.6
			c-0.5-0.3-0.8-0.5-1-0.7c-0.2-0.3-0.4-0.7-0.5-1.1s-0.2-0.9-0.2-1.5c0-0.6,0.1-1.1,0.2-1.7c0.1-0.5,0.4-0.9,0.6-1.2
			c0.3-0.3,0.6-0.4,0.9-0.4c0.4,0,0.7,0.1,1,0.4c0.3,0.3,0.5,0.7,0.7,1.2c0.2,0.5,0.2,1.2,0.3,1.8l-0.7,0.1c0-0.7-0.2-1.3-0.4-1.7
			S14,3.5,13.6,3.5c-0.4,0-0.7,0.2-0.9,0.5c-0.2,0.3-0.3,0.8-0.3,1.2c0,0.4,0.1,0.8,0.2,1c0.1,0.3,0.5,0.5,1,0.8
			c0.6,0.3,0.9,0.5,1.1,0.7C15,8.2,15.3,8.6,15.4,9c0.1,0.5,0.2,1,0.2,1.7c0,0.6-0.1,1.2-0.2,1.8c-0.2,0.6-0.4,1-0.7,1.3
			c-0.3,0.3-0.6,0.5-1,0.5c-0.5,0-0.9-0.2-1.2-0.5S12,13,11.8,12.4S11.5,11,11.5,10.3z"/>
	</g>
</g>
</svg>
