<?xml version="1.0" encoding="utf-8"?>
<!-- Generator: Adobe Illustrator 22.0.1, SVG Export Plug-In . SVG Version: 6.00 Build 0)  -->
<svg version="1.1" id="Layer_1" xmlns="http://www.w3.org/2000/svg" xmlns:xlink="http://www.w3.org/1999/xlink" x="0px" y="0px"
	 viewBox="0 0 300 300" style="enable-background:new 0 0 300 300;" xml:space="preserve">
<style type="text/css">
	.st0{fill:#FFFFFF;}
</style>
<g id="Layer_1_1_">
	<g transform="matrix(.87023 0 0 .87023 53.098 -678.62)">
		<path class="st0" d="M20.5,817.2c0,0,42.9,7.8,64.8,8.6c37.1,1.2,84.7-4.7,111.1-7.3c0,0-64.9,18.2-98.8,20.8
			c-15.9,1.2-47.8-2.4-47.8-2.4s37.6,58.3,34,89.3c-4,33.4-47.1,57-58.7,89.3c-9.8,27.5-7.7,85.6-7.7,85.6s-26.9-62.3-23.1-94.2
			c2.1-17.5,16.6-32.6,24.7-48.9c9.9-19.9,27.6-38.5,29.3-59.9c2.2-27.2-24.7-79.5-24.7-79.5L20.5,817.2L20.5,817.2z"/>
	</g>
</g>
</svg>
