<?xml version="1.0" encoding="utf-8"?>
<!-- Generator: Adobe Illustrator 22.0.1, SVG Export Plug-In . SVG Version: 6.00 Build 0)  -->
<svg version="1.1" id="Layer_1" xmlns="http://www.w3.org/2000/svg" xmlns:xlink="http://www.w3.org/1999/xlink" x="0px" y="0px"
	 viewBox="0 0 300 300" style="enable-background:new 0 0 300 300;" xml:space="preserve">
<style type="text/css">
	.st0{fill:#828282;}
</style>
<g id="Layer_1_1_">
	<g transform="matrix(.87023 0 0 .87023 53.098 -678.62)">
		<path class="st0" d="M113.8,790.6c-61.3,0.2-122.7,4-122.7,10.7c0,0,25.6,42.9,30.9,66c2.2,9.6,2.5,19.8,0,29.3
			c-6.3,24.3-30.6,44.2-37,68.5c-9.4,35.1-11.4,72.6-1.5,107.6c3.9,13.7,23.1,37.9,23.1,37.9c0,15.7,214.4,13.6,214.4,0
			c0,0,19.3-24.2,23.1-37.9c9.9-35,7.8-72.5-1.5-107.6c-6.5-24.3-30.8-44.2-37.1-68.5c-2.5-9.6-2.2-19.7,0-29.3
			c5.2-23.1,30.9-66,30.9-66C236.5,793.8,175.2,790.4,113.8,790.6L113.8,790.6z M20.5,817.2c0,0,42.9,7.8,64.8,8.6
			c37.1,1.2,84.7-4.7,111.1-7.3c0,0-64.9,18.2-98.8,20.8c-15.9,1.2-47.8-2.4-47.8-2.4s37.6,58.3,34,89.3c-4,33.4-47.1,57-58.7,89.3
			c-9.8,27.5-7.7,85.6-7.7,85.6s-26.9-62.3-23.1-94.2c2.1-17.5,16.6-32.6,24.7-48.9c9.9-19.9,27.6-38.5,29.3-59.9
			c2.2-27.2-24.7-79.5-24.7-79.5L20.5,817.2L20.5,817.2z"/>
	</g>
</g>
</svg>
